<svg width="42" height="37" viewBox="0 0 42 37" fill="none" xmlns="http://www.w3.org/2000/svg">
<path d="M1 19.1309H12.5942C15.6527 19.1309 17.7516 21.4498 17.7516 24.2883V30.7251C17.7516 33.5637 15.6527 35.8825 12.5942 35.8825H6.15742C3.31884 35.8825 1 33.5637 1 30.7251V19.1309Z" stroke="white" stroke-width="1.5" stroke-linecap="round" stroke-linejoin="round"/>
<path d="M1 19.1309C1 7.03698 3.25887 5.03798 10.0555 1M24.2484 19.1309H35.8426C38.901 19.1309 41 21.4498 41 24.2884V30.7251C41 33.5637 38.901 35.8826 35.8426 35.8826H29.4058C26.5672 35.8826 24.2484 33.5637 24.2484 30.7251V19.1309Z" stroke="white" stroke-width="1.5" stroke-linecap="round" stroke-linejoin="round"/>
<path d="M24.2484 19.1309C24.2484 7.03698 26.5073 5.03798 33.3039 1" stroke="white" stroke-width="1.5" stroke-linecap="round" stroke-linejoin="round"/>
</svg>
