<svg width="42" height="42" viewBox="0 0 42 42" fill="none" xmlns="http://www.w3.org/2000/svg">
<path d="M15 41H27C37 41 41 37 41 27V15C41 5 37 1 27 1H15C5 1 1 5 1 15V27C1 37 5 41 15 41Z" stroke="white" stroke-width="1.5" stroke-linecap="round" stroke-linejoin="round"/>
<path d="M21 28.0001C21.9193 28.0001 22.8295 27.819 23.6788 27.4672C24.5281 27.1154 25.2998 26.5998 25.9498 25.9498C26.5998 25.2998 27.1154 24.5281 27.4672 23.6788C27.819 22.8296 28 21.9193 28 21.0001C28 20.0808 27.819 19.1706 27.4672 18.3213C27.1154 17.472 26.5998 16.7003 25.9498 16.0503C25.2998 15.4003 24.5281 14.8847 23.6788 14.5329C22.8295 14.1811 21.9193 14.0001 21 14.0001C19.1435 14.0001 17.363 14.7376 16.0503 16.0503C14.7375 17.3631 14 19.1435 14 21.0001C14 22.8566 14.7375 24.6371 16.0503 25.9498C17.363 27.2626 19.1435 28.0001 21 28.0001Z" stroke="white" stroke-width="1.5" stroke-linecap="round" stroke-linejoin="round"/>
<path d="M32.272 11H32.2959" stroke="white" stroke-width="2" stroke-linecap="round" stroke-linejoin="round"/>
</svg>
