<svg width="42" height="37" viewBox="0 0 42 37" fill="none" xmlns="http://www.w3.org/2000/svg">
<path d="M41 17.7516H29.4058C26.3473 17.7516 24.2484 15.4328 24.2484 12.5942V6.15742C24.2484 3.31884 26.3473 1 29.4058 1H35.8426C38.6812 1 41 3.31884 41 6.15742V17.7516ZM41 17.7516C41 29.8456 38.7411 31.8446 31.9445 35.8826M17.7716 17.7516V6.15742C17.7716 3.31884 15.4528 1 12.6142 1H6.15742C3.09895 1 1 3.31884 1 6.15742V12.5942C1 15.4328 3.09895 17.7516 6.15742 17.7516H17.7516C17.7516 29.8456 15.4928 31.8446 8.69615 35.8826" stroke="white" stroke-width="1.5" stroke-linecap="round" stroke-linejoin="round"/>
</svg>
