<svg width="42" height="49" viewBox="0 0 42 49" fill="none" xmlns="http://www.w3.org/2000/svg">
<path d="M21 27.5113C21.9503 27.5113 22.8913 27.3241 23.7693 26.9605C24.6473 26.5968 25.4451 26.0637 26.1171 25.3917C26.7891 24.7198 27.3221 23.922 27.6858 23.044C28.0495 22.166 28.2367 21.225 28.2367 20.2746C28.2367 19.3243 28.0495 18.3833 27.6858 17.5053C27.3221 16.6273 26.7891 15.8295 26.1171 15.1575C25.4451 14.4855 24.6473 13.9525 23.7693 13.5888C22.8913 13.2251 21.9503 13.038 21 13.038C19.0807 13.038 17.24 13.8004 15.8829 15.1575C14.5257 16.5147 13.7633 18.3554 13.7633 20.2746C13.7633 22.1939 14.5257 24.0346 15.8829 25.3917C17.24 26.7489 19.0807 27.5113 21 27.5113Z" stroke="white" stroke-width="1.5"/>
<path d="M1.56306 16.0532C6.13237 -4.0332 35.8909 -4.01 40.437 16.0764C43.1044 27.8592 35.7749 37.8328 29.3501 44.0026C27.105 46.1679 24.1075 47.3778 20.9884 47.3778C17.8694 47.3778 14.8719 46.1679 12.6268 44.0026C6.22515 37.8328 -1.10431 27.836 1.56306 16.0532Z" stroke="white" stroke-width="1.5"/>
</svg>
