<svg width="42" height="43" viewBox="0 0 42 43" fill="none" xmlns="http://www.w3.org/2000/svg">
<path d="M41 34.2136C41 34.9458 40.8398 35.6983 40.4992 36.4305C40.1587 37.1627 39.7181 37.8542 39.1372 38.5051C38.1557 39.6034 37.0741 40.3966 35.8523 40.9051C34.6505 41.4136 33.3485 41.678 31.9464 41.678C29.9034 41.678 27.7201 41.1898 25.4166 40.1932C23.1132 39.1966 20.8097 37.8542 18.5263 36.1661C16.199 34.4375 14.0029 32.5338 11.9564 30.4712C9.93093 28.4007 8.06279 26.1774 6.36805 23.8203C4.72559 21.5017 3.40361 19.1831 2.44216 16.8847C1.48072 14.5661 1 12.3492 1 10.2339C1 8.85085 1.24036 7.52881 1.72108 6.30847C2.2018 5.0678 2.96294 3.92881 4.02454 2.91186C5.30646 1.63051 6.70856 1 8.19079 1C8.75163 1 9.31247 1.12203 9.81322 1.3661C10.334 1.61017 10.7947 1.97627 11.1552 2.50508L15.8022 9.15593C16.1627 9.66441 16.4231 10.1322 16.6034 10.5797C16.7837 11.0068 16.8838 11.4339 16.8838 11.8203C16.8838 12.3085 16.7436 12.7966 16.4632 13.2644C16.2028 13.7322 15.8222 14.2203 15.3415 14.7085L13.8192 16.3153C13.5989 16.539 13.4987 16.8034 13.4987 17.1288C13.4987 17.2915 13.5188 17.4339 13.5588 17.5966C13.6189 17.7593 13.679 17.8814 13.7191 18.0034C14.0796 18.6746 14.7006 19.5492 15.5819 20.6068C16.4832 21.6644 17.4447 22.7424 18.4862 23.8203C19.5679 24.8983 20.6094 25.8949 21.671 26.8102C22.7126 27.7051 23.5739 28.3153 24.2549 28.6814C24.355 28.722 24.4752 28.7831 24.6154 28.8441C24.7757 28.9051 24.9359 28.9254 25.1162 28.9254C25.4567 28.9254 25.7171 28.8034 25.9374 28.5797L27.4597 27.0542C27.9604 26.5458 28.4412 26.1593 28.9019 25.9153C29.3625 25.6305 29.8232 25.4881 30.324 25.4881C30.7046 25.4881 31.1052 25.5695 31.5458 25.7525C31.9865 25.9356 32.4472 26.2 32.9479 26.5458L39.5779 31.3254C40.0986 31.6915 40.4592 32.1186 40.6795 32.6271C40.8798 33.1356 41 33.6441 41 34.2136Z" stroke="white" stroke-width="1.5" stroke-miterlimit="10"/>
</svg>
