<svg xmlns="http://www.w3.org/2000/svg" viewBox="0 0 846.02 176.26"><defs><style>.cls-1{fill:#fff;}</style></defs><title>Varlık 2</title><g id="katman_2" data-name="katman 2"><g id="katman_1-2" data-name="katman 1"><path class="cls-1" d="M12.34,35.13c0-15.19,10.76-24.21,33.23-24.21,8.7,0,14.55,4.74,15.34,17.72H63.6L65,6c-4.27-1.74-10-2.53-16-2.53-29.11,0-46.68,13.77-46.68,33.7,0,40.82,57.75,31,57.75,64.4,0,20.57-24,22.47-31.32,22.47-16.93,0-22-2.22-25-18.83H1.11L0,127.37A64.66,64.66,0,0,0,24.21,132c20.25,0,47.15-7,47.15-34.34,0-39.39-59-33.07-59-62.49"/><path class="cls-1" d="M170.56,6.8V9.34c9.5,1.74,16.3,2.69,16.3,19.61V65.82c0,19.78-.63,33.7-4,41.14-5.54,12.34-15.19,17.4-33.55,17.4-26.74,0-36.07-14.24-36.07-38.92V29c0-17.24,6.49-17.87,16.3-19.61V6.8c-7.92,0-13.93.16-21.84.16s-15-.16-22.94-.16V9.34C94.3,11.08,101.11,12,101.11,29V90.19c0,27.84,17.24,41.77,44.3,41.77,25.31,0,39.08-7.76,45.25-22.63,4.43-10.76,4.43-26.1,4.43-44.46V29c0-17.24,6.49-17.87,16.3-19.61V6.8c-7.92,0-12.5.16-20.42.16s-12.49-.16-20.41-.16"/><path class="cls-1" d="M391.92,170.56c-44.3,0-88.92-63.92-114.71-95.56C299,71.36,311.7,55.06,311.7,37c0-19-15.19-31.48-46.2-31.48-8.55,0-15.82,1.26-23.1,1.26-7.91,0-14.4-.15-22.31-.15V9.18c14.24,1.74,15.82,8.07,15.82,23.41v70.1c0,15.34-1.58,21.83-15.82,23.73v2.22c7.75-.16,13.92-.32,21.83-.32s14.4.16,22.47.32v-2.22c-14.55-1.74-16.3-8.07-16.3-23.73V75.79h12.66c22,22.31,72.63,100.47,124.05,100.47a53.82,53.82,0,0,0,27.05-7.44l-1.1-2.53a42.86,42.86,0,0,1-18.83,4.27M248.09,68.83V32.59c0-16.93,2.38-19.77,16.62-19.77,28.16,0,34,15.5,34,27.21,0,22-17.24,28.8-35.91,28.8Z"/><path class="cls-1" d="M369.29,128.48V126C359.8,124.2,353,123.26,353,106.33v-78c30.37,33.7,63,65.19,92.4,102.53l1.74-.16V28.8c0-17.25,6.48-17.88,16.29-19.62V6.65c-7.91,0-12.34.15-20.25.15s-12.5-.15-20.41-.15V9.18c9.49,1.74,16.3,2.69,16.3,19.62v73.25c-22-22-77.37-83.06-91.77-102h-2.37V106.33c0,17.24-6.49,17.87-16.3,19.62v2.53c7.91,0,12.34-.16,20.25-.16s12.5.16,20.41.16"/><path class="cls-1" d="M837,130.06c1.42-7.6,4.9-16.3,9-24.21l-1.27-1.58c-7.28,10-12.34,17.09-37.34,17.09-24.21,0-24.52-1.27-24.52-18.83V67.88h16.45c15.35,0,22.63.47,23.73,9.49h2.22c-.16-7.75-.16-10.13-.16-13.29s0-6.17.16-14.24h-2.22c-.94,9.81-8.06,10-23.73,10H782.89V31c0-16.93,3-17.88,24.52-17.88,19.94,0,23.26,7.91,27.37,17.88l1.74-.16c-.15-4-.47-8.22-.47-12.34a91,91,0,0,1,1-13.29c-7.44,1.43-20.25,1.58-45.57,1.58-11.71,0-24.68,0-36.55-.15V9.18c14.24,1.74,15.82,8.07,15.82,23.41v70.25c0,15.35-1.58,21.84-15.82,23.74v2.21c13-.31,26.27-.47,39.24-.47,20.73,0,34.18,0,42.88,1.74"/><path class="cls-1" d="M731.15,106.33,725.13,0H721.5L669.12,105.06,616.28,0h-2.37l-8.07,106.33c-1.17,15.93-6,17.72-14.42,19.25v2.89h1.28c6.07,0,29.59,0,37.5,0v-2.54c-12.18-2.21-16.45-6.32-16.45-16.29a23,23,0,0,1,.16-3.32l4.42-75.63,47.79,94,1.9-.48,46.2-95.72,5.85,77.85c0,1.1.16,2,.16,3,0,14.08-6.8,15-15.66,16.61v2.54c7.91,0,13.45-.16,21.36-.16s12.34.16,20.25.16v-2.54c-9.81-1.74-14.08-2.37-15-19.61"/><path class="cls-1" d="M564.9,104.74C551.3,70.88,539.27,43,526.3,3.16l-2.22.32C502.25,51.9,475.67,113,471.71,119.14c-2.37,3.64-5.22,5.7-14.08,6.8v2.54c7.91-.16,12.82-.32,21.36-.32,8.86,0,11.55.16,21.2.32v-2.85c-12.34-.32-15.51-3-15.51-7.91,0-8.71,10-29.43,36.71-91.77C553.67,110.76,556,114.24,556,118.67s-1.1,6.33-12,7v2.84c9.33-.16,40.19,0,40.8,0v-2.94c-11.54-.86-14.42-7.21-19.92-20.79"/></g></g></svg>